# xmcd
#
# Track frame offsets:
#	150
#	16155
#	30554
#	45552
#	60739
#	76401
#	91465
#	108572
#	121645
#	135141
#	151146
#	165545
#	180543
#	195730
#	211392
#	226456
#	243563
#	256636
#
# Disc length: 3601
#
# Revision: 1
# Processed by: cddbd v1.5.2PL0 Copyright (c) Steve Scherf et al.
# Submitted via: kJams Pro (development) 1.0patch45.7
#
DISCID=d90e0f12
DTITLE=Various Artist - NSC 3013
DYEAR=1994
DGENRE=Country
TTITLE0=Faith Hill - If My Heart Had Wings
TTITLE1=Vince Gill - Shoot Straight From Your Heart
TTITLE2=Aaron Tippin - People Like Us
TTITLE3=Martina McBride - It's My Time
TTITLE4=Kenny Chesney - Don't Happen Twice
TTITLE5=Pam Tillis - Please
TTITLE6=Phil Vassar - Rose Bouquet
TTITLE7=Trick Pony - Pour Me
TTITLE8=Gary Allan - Right Where I Need To Be
TTITLE9=Faith Hill - Vocals - If My Heart Had Wings
TTITLE10=Vince Gill - Vocals - Shoot Straight From Your Heart
TTITLE11=Aaron Tippin - Vocals - People Like Us
TTITLE12=Martina McBride - Vocals - It's My Time
TTITLE13=Kenny Chesney - Vocals - Don't Happen Twice
TTITLE14=Pam Tillis - Vocals - Please 
TTITLE15=Phil Vassar - Vocals - Rose Bouquet
TTITLE16=Trick Pony - Vocals - Pour Me
TTITLE17=Gary Allan =Vocals - Right Where I Need To Be
EXTD=
EXTT0=
EXTT1=
EXTT2=
EXTT3=
EXTT4=
EXTT5=
EXTT6=
EXTT7=
EXTT8=
EXTT9=
EXTT10=
EXTT11=
EXTT12=
EXTT13=
EXTT14=
EXTT15=
EXTT16=
EXTT17=
PLAYORDER=
